<?xml version="1.0" standalone="no"?>
<svg xmlns="http://www.w3.org/2000/svg" viewBox="0 0 96 19.632" width="96" height="19.632"><path fill="#0019ff" fill-rule="nonzero" d="M5.18 19.44L0 19.44L0 0L4.46 0Q5.78 0 6.76 0.29Q7.73 0.58 8.38 1.18Q9.02 1.78 9.34 2.70Q9.65 3.62 9.65 4.87L9.65 4.87Q9.65 6.07 9.35 6.95Q9.05 7.82 8.44 8.33Q7.82 8.83 6.86 8.98L6.86 8.98Q8.04 9.24 8.76 9.88Q9.48 10.51 9.83 11.51Q10.18 12.50 10.18 13.90L10.18 13.90Q10.18 15.14 9.89 16.18Q9.60 17.21 8.99 17.93Q8.38 18.65 7.43 19.04Q6.48 19.44 5.18 19.44L5.18 19.44ZM2.71 10.18L2.71 17.50L4.54 17.50Q6.36 17.50 6.97 16.64Q7.58 15.79 7.58 13.90L7.58 13.90Q7.58 12.67 7.26 11.84Q6.94 11.02 6.23 10.60Q5.52 10.18 4.32 10.18L4.32 10.18L2.71 10.18ZM2.71 2.02L2.71 8.11L4.32 8.11Q5.47 8.11 6.12 7.79Q6.77 7.46 7.03 6.74Q7.30 6.02 7.30 4.87L7.30 4.87Q7.30 3.53 6.89 2.93Q6.48 2.33 5.62 2.17Q4.75 2.02 3.36 2.02L3.36 2.02L2.71 2.02ZM15.17 19.44L12.60 19.44L12.60 0L15.17 0L15.17 19.44ZM19.85 19.63L19.85 19.63Q19.03 19.63 18.58 19.20Q18.12 18.77 17.94 18.12Q17.76 17.47 17.76 16.80L17.76 16.80L17.76 5.57L20.33 5.57L20.33 16.03Q20.33 16.78 20.54 17.20Q20.76 17.62 21.43 17.62L21.43 17.62Q21.86 17.62 22.33 17.36Q22.80 17.11 23.23 16.75L23.23 16.75L23.23 5.57L25.80 5.57L25.80 19.44L23.23 19.44L23.23 18.07Q22.56 18.72 21.71 19.18Q20.86 19.63 19.85 19.63ZM32.26 19.63L32.26 19.63Q30.62 19.63 29.74 19.00Q28.85 18.36 28.50 17.12Q28.15 15.89 28.15 14.09L28.15 14.09L28.15 10.92Q28.15 9.07 28.51 7.85Q28.87 6.62 29.77 6.00Q30.67 5.38 32.26 5.38L32.26 5.38Q34.01 5.38 34.84 6.10Q35.66 6.82 35.93 8.17Q36.19 9.53 36.19 11.42L36.19 11.42L36.19 12.55L30.72 12.55L30.72 15.34Q30.72 16.18 30.88 16.70Q31.03 17.23 31.38 17.48Q31.73 17.74 32.28 17.74L32.28 17.74Q32.86 17.74 33.16 17.46Q33.46 17.18 33.56 16.67Q33.67 16.15 33.67 15.46L33.67 15.46L33.67 14.62L36.17 14.62L36.17 15.14Q36.17 17.23 35.28 18.43Q34.39 19.63 32.26 19.63ZM30.72 10.42L30.72 11.16L33.67 11.16L33.67 9.91Q33.67 9.05 33.58 8.46Q33.48 7.87 33.18 7.57Q32.88 7.27 32.23 7.27L32.23 7.27Q31.61 7.27 31.28 7.56Q30.96 7.85 30.84 8.53Q30.72 9.22 30.72 10.42L30.72 10.42ZM46.42 19.44L38.74 19.44L38.74 0L41.45 0L41.45 17.50L46.42 17.50L46.42 19.44ZM50.54 19.63L50.54 19.63Q49.73 19.63 49.10 19.16Q48.48 18.70 48.12 17.96Q47.76 17.23 47.76 16.42L47.76 16.42Q47.76 15.12 48.19 14.23Q48.62 13.34 49.38 12.73Q50.14 12.12 51.13 11.66Q52.13 11.21 53.23 10.78L53.23 10.78L53.23 9.79Q53.23 8.95 53.14 8.40Q53.04 7.85 52.74 7.57Q52.44 7.30 51.84 7.30L51.84 7.30Q51.31 7.30 50.99 7.54Q50.66 7.78 50.52 8.22Q50.38 8.66 50.38 9.26L50.38 9.26L50.38 9.96L47.83 9.86Q47.88 7.56 48.89 6.47Q49.90 5.38 52.01 5.38L52.01 5.38Q54.07 5.38 54.94 6.50Q55.80 7.63 55.80 9.77L55.80 9.77L55.80 16.10Q55.80 16.75 55.84 17.35Q55.87 17.95 55.93 18.47Q55.99 18.98 56.04 19.44L56.04 19.44L53.69 19.44Q53.62 19.06 53.51 18.47Q53.40 17.88 53.35 17.40L53.35 17.40Q53.11 18.22 52.43 18.92Q51.74 19.63 50.54 19.63ZM51.55 17.42L51.55 17.42Q51.94 17.42 52.27 17.21Q52.61 16.99 52.87 16.72Q53.14 16.44 53.23 16.27L53.23 16.27L53.23 12.34Q52.63 12.67 52.10 13.01Q51.58 13.34 51.18 13.72Q50.78 14.09 50.56 14.56Q50.33 15.02 50.33 15.62L50.33 15.62Q50.33 16.46 50.64 16.94Q50.95 17.42 51.55 17.42ZM61.78 19.63L61.78 19.63Q60.70 19.63 60.04 19.22Q59.38 18.82 59.08 18.07Q58.78 17.33 58.78 16.32L58.78 16.32L58.78 7.27L57.31 7.27L57.31 5.57L58.78 5.57L58.78 1.51L61.34 1.51L61.34 5.57L63.58 5.57L63.58 7.27L61.34 7.27L61.34 16.15Q61.34 16.97 61.61 17.32Q61.87 17.66 62.62 17.66L62.62 17.66Q62.81 17.66 63.06 17.64Q63.31 17.62 63.55 17.59L63.55 17.59L63.55 19.49Q63.07 19.56 62.66 19.60Q62.26 19.63 61.78 19.63ZM69.17 19.63L69.17 19.63Q68.09 19.63 67.43 19.22Q66.77 18.82 66.47 18.07Q66.17 17.33 66.17 16.32L66.17 16.32L66.17 7.27L64.70 7.27L64.70 5.57L66.17 5.57L66.17 1.51L68.74 1.51L68.74 5.57L70.97 5.57L70.97 7.27L68.74 7.27L68.74 16.15Q68.74 16.97 69 17.32Q69.26 17.66 70.01 17.66L70.01 17.66Q70.20 17.66 70.45 17.64Q70.70 17.62 70.94 17.59L70.94 17.59L70.94 19.49Q70.46 19.56 70.06 19.60Q69.65 19.63 69.17 19.63ZM75.60 19.44L73.03 19.44L73.03 5.57L75.60 5.57L75.60 19.44ZM75.60 3.50L73.03 3.50L73.03 0.82L75.60 0.82L75.60 3.50ZM82.15 19.63L82.15 19.63Q80.45 19.63 79.57 18.95Q78.70 18.26 78.40 17.02Q78.10 15.77 78.10 14.11L78.10 14.11L78.10 10.92Q78.10 9.17 78.41 7.93Q78.72 6.70 79.60 6.04Q80.47 5.38 82.15 5.38L82.15 5.38Q83.66 5.38 84.49 5.87Q85.32 6.36 85.63 7.33Q85.94 8.30 85.94 9.74L85.94 9.74L85.94 10.56L83.62 10.56L83.62 9.72Q83.62 8.81 83.50 8.28Q83.38 7.75 83.06 7.51Q82.75 7.27 82.18 7.27L82.18 7.27Q81.55 7.27 81.22 7.56Q80.88 7.85 80.77 8.53Q80.66 9.22 80.66 10.39L80.66 10.39L80.66 14.76Q80.66 16.54 81 17.14Q81.34 17.74 82.20 17.74L82.20 17.74Q82.85 17.74 83.15 17.44Q83.45 17.14 83.53 16.58Q83.62 16.03 83.62 15.34L83.62 15.34L83.62 14.21L85.94 14.21L85.94 15.17Q85.94 16.56 85.62 17.57Q85.30 18.58 84.47 19.10Q83.64 19.63 82.15 19.63ZM92.06 19.63L92.06 19.63Q90.43 19.63 89.54 19.00Q88.66 18.36 88.31 17.12Q87.96 15.89 87.96 14.09L87.96 14.09L87.96 10.92Q87.96 9.07 88.32 7.85Q88.68 6.62 89.58 6.00Q90.48 5.38 92.06 5.38L92.06 5.38Q93.82 5.38 94.64 6.10Q95.47 6.82 95.74 8.17Q96 9.53 96 11.42L96 11.42L96 12.55L90.53 12.55L90.53 15.34Q90.53 16.18 90.68 16.70Q90.84 17.23 91.19 17.48Q91.54 17.74 92.09 17.74L92.09 17.74Q92.66 17.74 92.96 17.46Q93.26 17.18 93.37 16.67Q93.48 16.15 93.48 15.46L93.48 15.46L93.48 14.62L95.98 14.62L95.98 15.14Q95.98 17.23 95.09 18.43Q94.20 19.63 92.06 19.63ZM90.53 10.42L90.53 11.16L93.48 11.16L93.48 9.91Q93.48 9.05 93.38 8.46Q93.29 7.87 92.99 7.57Q92.69 7.27 92.04 7.27L92.04 7.27Q91.42 7.27 91.09 7.56Q90.77 7.85 90.65 8.53Q90.53 9.22 90.53 10.42L90.53 10.42Z"></path></svg>
